<svg width="36" height="46" viewBox="0 0 36 46" fill="none" xmlns="http://www.w3.org/2000/svg">
    <rect x="1" y="1" width="24" height="33" rx="4" fill="#2A343D" stroke="#2A343D" stroke-width="2"/>
    <rect x="11" y="12" width="24" height="33" rx="4" fill="white" stroke="#2A343D" stroke-width="2"/>
    <path d="M22.9907 19.9297C20.7817 19.9297 18.9907 21.7207 18.9907 23.9297C18.9907 24.9277 19.3857 25.8227 19.9907 26.5237C19.3967 26.1737 18.7307 25.9297 17.9907 25.9297C15.7817 25.9297 13.9907 27.7207 13.9907 29.9297C13.9907 32.1387 15.7817 33.9297 17.9907 33.9297C19.0957 33.9297 20.1107 33.4977 20.8347 32.7737C20.7967 32.9397 20.8017 33.0577 20.7407 33.2417C20.5857 33.7087 20.3457 34.2187 20.0847 34.7417C19.8777 35.1547 19.6817 35.5597 19.4597 35.9297C19.3277 36.1497 19.2007 36.2857 19.1467 36.3677C18.7037 37.0317 19.1917 37.9297 19.9907 37.9297H25.9907C26.7897 37.9297 27.2777 37.0317 26.8347 36.3677C26.7807 36.2857 26.6537 36.1497 26.5217 35.9297C26.2997 35.5597 26.1037 35.1547 25.8967 34.7417C25.6357 34.2187 25.3957 33.7087 25.2407 33.2417C25.1787 33.0577 25.1847 32.9397 25.1467 32.7737C25.8707 33.4977 26.8857 33.9297 27.9907 33.9297C30.1997 33.9297 31.9907 32.1387 31.9907 29.9297C31.9907 27.7207 30.1997 25.9297 27.9907 25.9297C27.2507 25.9297 26.5847 26.1737 25.9907 26.5237C26.5957 25.8227 26.9907 24.9277 26.9907 23.9297C26.9907 21.7207 25.1997 19.9297 22.9907 19.9297Z" fill="#2A343D"/>
    </svg>
    